<svg xmlns="http://www.w3.org/2000/svg" xmlns:xlink="http://www.w3.org/1999/xlink" width="500" zoomAndPan="magnify" viewBox="0 0 375 374.999991" height="500" preserveAspectRatio="xMidYMid meet" version="1.0"><defs><g/><clipPath id="d75fe4e97f"><path d="M 61 95.238281 L 283.5 95.238281 L 283.5 279.738281 L 61 279.738281 Z M 61 95.238281 " clip-rule="nonzero"/></clipPath><clipPath id="ae5c8d67ea"><rect x="0" width="117" y="0" height="25"/></clipPath><clipPath id="9f2595d39b"><rect x="0" width="159" y="0" height="35"/></clipPath></defs><path fill="#72e3ad" d="M 177.835938 153.171875 L 187.386719 153.171875 L 187.386719 143.351562 C 187.476562 143.351562 178.289062 143.890625 177.835938 153.171875 Z M 177.835938 153.171875 " fill-opacity="1" fill-rule="nonzero"/><path fill="#72e3ad" d="M 177.835938 155.511719 L 187.476562 155.511719 L 187.476562 165.242188 L 177.835938 165.242188 Z M 177.835938 155.511719 " fill-opacity="1" fill-rule="nonzero"/><path fill="#72e3ad" d="M 189.28125 143.351562 L 189.28125 153.171875 L 198.828125 153.171875 C 198.46875 143.890625 189.28125 143.351562 189.28125 143.351562 Z M 189.28125 143.351562 " fill-opacity="1" fill-rule="nonzero"/><path fill="#72e3ad" d="M 189.28125 155.511719 L 198.921875 155.511719 L 198.921875 165.242188 L 189.28125 165.242188 Z M 189.28125 155.511719 " fill-opacity="1" fill-rule="nonzero"/><g clip-path="url(#d75fe4e97f)"><path fill="#72e3ad" d="M 190.089844 95.238281 L 164.59375 126.773438 L 164.59375 114.878906 L 155.132812 114.878906 L 155.132812 138.484375 L 128.640625 171.191406 L 188.289062 127.582031 L 269.648438 188.039062 C 195.585938 165.0625 102.875 177.226562 72.332031 211.285156 C 37.550781 252.640625 100.890625 279.761719 100.890625 279.761719 C 72.601562 255.164062 73.773438 231.105469 90.261719 215.070312 C 114.765625 192.542969 144.320312 188.039062 158.824219 185.15625 C 221.175781 174.34375 268.117188 190.203125 277.398438 193.714844 L 277.9375 194.074219 C 162.609375 165.875 111.613281 208.222656 111.613281 208.222656 C 197.027344 171.191406 283.074219 198.039062 283.074219 198.039062 Z M 190.089844 95.238281 " fill-opacity="1" fill-rule="nonzero"/></g><g transform="matrix(1, 0, 0, 1, 129, 243)"><g clip-path="url(#ae5c8d67ea)"><g fill="#72e3ad" fill-opacity="1"><g transform="translate(1.428894, 18.713559)"><g><path d="M 1.921875 0 L 1.921875 -12.734375 L 6.546875 -12.734375 C 7.398438 -12.734375 8.113281 -12.585938 8.6875 -12.296875 C 9.269531 -12.015625 9.707031 -11.617188 10 -11.109375 C 10.289062 -10.597656 10.4375 -9.988281 10.4375 -9.28125 C 10.4375 -8.5 10.238281 -7.847656 9.84375 -7.328125 C 9.445312 -6.816406 8.832031 -6.4375 8 -6.1875 L 8 -6 C 8.414062 -5.832031 8.753906 -5.570312 9.015625 -5.21875 C 9.273438 -4.875 9.515625 -4.359375 9.734375 -3.671875 L 10.90625 0 L 9.359375 0 L 8.09375 -3.890625 C 7.945312 -4.347656 7.773438 -4.707031 7.578125 -4.96875 C 7.378906 -5.226562 7.128906 -5.414062 6.828125 -5.53125 C 6.523438 -5.644531 6.140625 -5.703125 5.671875 -5.703125 L 3.421875 -5.703125 L 3.421875 0 Z M 6.515625 -6.984375 C 7.304688 -6.984375 7.894531 -7.164062 8.28125 -7.53125 C 8.675781 -7.90625 8.875 -8.46875 8.875 -9.21875 C 8.875 -9.96875 8.675781 -10.523438 8.28125 -10.890625 C 7.894531 -11.265625 7.304688 -11.453125 6.515625 -11.453125 L 3.421875 -11.453125 L 3.421875 -6.984375 Z M 6.515625 -6.984375 "/></g></g></g><g fill="#72e3ad" fill-opacity="1"><g transform="translate(13.216239, 18.713559)"><g><path d="M 3.421875 -6 L 3.421875 -1.234375 L 9.90625 -1.234375 L 9.90625 0 L 1.921875 0 L 1.921875 -12.734375 L 9.765625 -12.734375 L 9.765625 -11.484375 L 3.421875 -11.484375 L 3.421875 -7.234375 L 9.015625 -7.234375 L 9.015625 -6 Z M 3.421875 -6 "/></g></g></g><g fill="#72e3ad" fill-opacity="1"><g transform="translate(23.967621, 18.713559)"><g><path d="M 11.453125 0 L 9.859375 0 L 8.671875 -3.484375 L 3.25 -3.484375 L 2.078125 0 L 0.5 0 L 4.9375 -12.734375 L 7.015625 -12.734375 Z M 5.859375 -11.1875 L 3.671875 -4.75 L 8.25 -4.75 L 6.078125 -11.1875 Z M 5.859375 -11.1875 "/></g></g></g><g fill="#72e3ad" fill-opacity="1"><g transform="translate(35.929077, 18.713559)"><g><path d="M 3.421875 -12.734375 L 3.421875 -1.234375 L 9.546875 -1.234375 L 9.546875 0 L 1.921875 0 L 1.921875 -12.734375 Z M 3.421875 -12.734375 "/></g></g></g><g fill="#72e3ad" fill-opacity="1"><g transform="translate(46.018836, 18.713559)"><g/></g></g><g fill="#72e3ad" fill-opacity="1"><g transform="translate(50.389033, 18.713559)"><g><path d="M 3.421875 -6 L 3.421875 -1.234375 L 9.90625 -1.234375 L 9.90625 0 L 1.921875 0 L 1.921875 -12.734375 L 9.765625 -12.734375 L 9.765625 -11.484375 L 3.421875 -11.484375 L 3.421875 -7.234375 L 9.015625 -7.234375 L 9.015625 -6 Z M 3.421875 -6 "/></g></g></g><g fill="#72e3ad" fill-opacity="1"><g transform="translate(61.140415, 18.713559)"><g><path d="M 5.5625 0.1875 C 4.757812 0.1875 4.039062 0.078125 3.40625 -0.140625 C 2.769531 -0.359375 2.238281 -0.644531 1.8125 -1 C 1.394531 -1.351562 1.082031 -1.742188 0.875 -2.171875 L 1.6875 -3.15625 L 1.90625 -3.15625 C 2.695312 -1.832031 3.914062 -1.171875 5.5625 -1.171875 C 6.519531 -1.171875 7.234375 -1.367188 7.703125 -1.765625 C 8.171875 -2.171875 8.40625 -2.726562 8.40625 -3.4375 C 8.40625 -3.851562 8.328125 -4.207031 8.171875 -4.5 C 8.015625 -4.789062 7.757812 -5.035156 7.40625 -5.234375 C 7.050781 -5.441406 6.570312 -5.625 5.96875 -5.78125 L 4.46875 -6.140625 C 3.363281 -6.410156 2.546875 -6.835938 2.015625 -7.421875 C 1.492188 -8.003906 1.234375 -8.742188 1.234375 -9.640625 C 1.234375 -10.265625 1.394531 -10.828125 1.71875 -11.328125 C 2.050781 -11.828125 2.53125 -12.210938 3.15625 -12.484375 C 3.78125 -12.765625 4.523438 -12.90625 5.390625 -12.90625 C 6.347656 -12.90625 7.15625 -12.769531 7.8125 -12.5 C 8.476562 -12.226562 9.007812 -11.828125 9.40625 -11.296875 L 8.671875 -10.3125 L 8.453125 -10.3125 C 8.085938 -10.757812 7.65625 -11.085938 7.15625 -11.296875 C 6.65625 -11.503906 6.066406 -11.609375 5.390625 -11.609375 C 4.515625 -11.609375 3.847656 -11.4375 3.390625 -11.09375 C 2.941406 -10.75 2.71875 -10.273438 2.71875 -9.671875 C 2.71875 -9.097656 2.882812 -8.640625 3.21875 -8.296875 C 3.550781 -7.960938 4.109375 -7.703125 4.890625 -7.515625 L 6.421875 -7.140625 C 7.648438 -6.859375 8.539062 -6.414062 9.09375 -5.8125 C 9.65625 -5.207031 9.9375 -4.441406 9.9375 -3.515625 C 9.9375 -2.785156 9.773438 -2.144531 9.453125 -1.59375 C 9.128906 -1.039062 8.640625 -0.601562 7.984375 -0.28125 C 7.328125 0.03125 6.519531 0.1875 5.5625 0.1875 Z M 5.5625 0.1875 "/></g></g></g><g fill="#72e3ad" fill-opacity="1"><g transform="translate(72.048498, 18.713559)"><g><path d="M 9.9375 -12.734375 L 9.9375 -11.453125 L 5.953125 -11.453125 L 5.953125 0 L 4.453125 0 L 4.453125 -11.453125 L 0.46875 -11.453125 L 0.46875 -12.734375 Z M 9.9375 -12.734375 "/></g></g></g><g fill="#72e3ad" fill-opacity="1"><g transform="translate(82.442951, 18.713559)"><g><path d="M 11.453125 0 L 9.859375 0 L 8.671875 -3.484375 L 3.25 -3.484375 L 2.078125 0 L 0.5 0 L 4.9375 -12.734375 L 7.015625 -12.734375 Z M 5.859375 -11.1875 L 3.671875 -4.75 L 8.25 -4.75 L 6.078125 -11.1875 Z M 5.859375 -11.1875 "/></g></g></g><g fill="#72e3ad" fill-opacity="1"><g transform="translate(94.404408, 18.713559)"><g><path d="M 9.9375 -12.734375 L 9.9375 -11.453125 L 5.953125 -11.453125 L 5.953125 0 L 4.453125 0 L 4.453125 -11.453125 L 0.46875 -11.453125 L 0.46875 -12.734375 Z M 9.9375 -12.734375 "/></g></g></g><g fill="#72e3ad" fill-opacity="1"><g transform="translate(104.798862, 18.713559)"><g><path d="M 3.421875 -6 L 3.421875 -1.234375 L 9.90625 -1.234375 L 9.90625 0 L 1.921875 0 L 1.921875 -12.734375 L 9.765625 -12.734375 L 9.765625 -11.484375 L 3.421875 -11.484375 L 3.421875 -7.234375 L 9.015625 -7.234375 L 9.015625 -6 Z M 3.421875 -6 "/></g></g></g></g></g><g transform="matrix(1, 0, 0, 1, 108, 211)"><g clip-path="url(#9f2595d39b)"><g fill="#72e3ad" fill-opacity="1"><g transform="translate(1.236695, 26.777052)"><g><path d="M 16.984375 -10.078125 C 18.117188 -9.648438 18.992188 -9.03125 19.609375 -8.21875 C 20.234375 -7.414062 20.546875 -6.445312 20.546875 -5.3125 C 20.546875 -3.625 19.847656 -2.316406 18.453125 -1.390625 C 17.066406 -0.460938 15.050781 0 12.40625 0 L 1.5625 0 L 1.5625 -19.265625 L 11.859375 -19.265625 C 14.429688 -19.265625 16.367188 -18.804688 17.671875 -17.890625 C 18.984375 -16.972656 19.640625 -15.75 19.640625 -14.21875 C 19.640625 -13.320312 19.414062 -12.515625 18.96875 -11.796875 C 18.519531 -11.085938 17.859375 -10.515625 16.984375 -10.078125 Z M 7.953125 -14.71875 L 7.953125 -11.859375 L 10.984375 -11.859375 C 12.390625 -11.859375 13.09375 -12.335938 13.09375 -13.296875 C 13.09375 -14.242188 12.390625 -14.71875 10.984375 -14.71875 Z M 11.859375 -4.546875 C 13.285156 -4.546875 14 -5.046875 14 -6.046875 C 14 -7.054688 13.285156 -7.5625 11.859375 -7.5625 L 7.953125 -7.5625 L 7.953125 -4.546875 Z M 11.859375 -4.546875 "/></g></g></g><g fill="#72e3ad" fill-opacity="1"><g transform="translate(22.499613, 26.777052)"><g><path d="M 11.671875 0.4375 C 9.597656 0.4375 7.734375 0.0078125 6.078125 -0.84375 C 4.429688 -1.707031 3.140625 -2.90625 2.203125 -4.4375 C 1.265625 -5.96875 0.796875 -7.695312 0.796875 -9.625 C 0.796875 -11.550781 1.265625 -13.28125 2.203125 -14.8125 C 3.140625 -16.34375 4.429688 -17.539062 6.078125 -18.40625 C 7.734375 -19.269531 9.597656 -19.703125 11.671875 -19.703125 C 13.742188 -19.703125 15.601562 -19.269531 17.25 -18.40625 C 18.90625 -17.539062 20.195312 -16.34375 21.125 -14.8125 C 22.0625 -13.28125 22.53125 -11.550781 22.53125 -9.625 C 22.53125 -7.695312 22.0625 -5.96875 21.125 -4.4375 C 20.195312 -2.90625 18.90625 -1.707031 17.25 -0.84375 C 15.601562 0.0078125 13.742188 0.4375 11.671875 0.4375 Z M 11.671875 -4.8125 C 12.472656 -4.8125 13.195312 -5.007812 13.84375 -5.40625 C 14.5 -5.800781 15.019531 -6.359375 15.40625 -7.078125 C 15.789062 -7.804688 15.984375 -8.65625 15.984375 -9.625 C 15.984375 -10.601562 15.789062 -11.453125 15.40625 -12.171875 C 15.019531 -12.898438 14.5 -13.460938 13.84375 -13.859375 C 13.195312 -14.253906 12.472656 -14.453125 11.671875 -14.453125 C 10.859375 -14.453125 10.125 -14.253906 9.46875 -13.859375 C 8.820312 -13.460938 8.304688 -12.898438 7.921875 -12.171875 C 7.535156 -11.453125 7.34375 -10.601562 7.34375 -9.625 C 7.34375 -8.65625 7.535156 -7.804688 7.921875 -7.078125 C 8.304688 -6.359375 8.820312 -5.800781 9.46875 -5.40625 C 10.125 -5.007812 10.859375 -4.8125 11.671875 -4.8125 Z M 11.671875 -4.8125 "/></g></g></g><g fill="#72e3ad" fill-opacity="1"><g transform="translate(45.825549, 26.777052)"><g><path d="M 9.828125 -4.84375 L 8.0625 -4.84375 L 8.0625 0 L 1.5625 0 L 1.5625 -19.265625 L 10.84375 -19.265625 C 12.625 -19.265625 14.171875 -18.96875 15.484375 -18.375 C 16.804688 -17.789062 17.828125 -16.945312 18.546875 -15.84375 C 19.265625 -14.75 19.625 -13.46875 19.625 -12 C 19.625 -10.625 19.3125 -9.421875 18.6875 -8.390625 C 18.0625 -7.359375 17.160156 -6.539062 15.984375 -5.9375 L 20.03125 0 L 13.09375 0 Z M 13.0625 -12 C 13.0625 -12.707031 12.84375 -13.257812 12.40625 -13.65625 C 11.96875 -14.050781 11.304688 -14.25 10.421875 -14.25 L 8.0625 -14.25 L 8.0625 -9.734375 L 10.421875 -9.734375 C 11.304688 -9.734375 11.96875 -9.929688 12.40625 -10.328125 C 12.84375 -10.722656 13.0625 -11.28125 13.0625 -12 Z M 13.0625 -12 "/></g></g></g><g fill="#72e3ad" fill-opacity="1"><g transform="translate(66.31826, 26.777052)"><g><path d="M 11.53125 0.4375 C 9.488281 0.4375 7.648438 0.0078125 6.015625 -0.84375 C 4.390625 -1.695312 3.113281 -2.890625 2.1875 -4.421875 C 1.257812 -5.953125 0.796875 -7.6875 0.796875 -9.625 C 0.796875 -11.570312 1.257812 -13.3125 2.1875 -14.84375 C 3.113281 -16.375 4.390625 -17.566406 6.015625 -18.421875 C 7.648438 -19.273438 9.488281 -19.703125 11.53125 -19.703125 C 13.394531 -19.703125 15.0625 -19.367188 16.53125 -18.703125 C 18 -18.046875 19.210938 -17.09375 20.171875 -15.84375 L 16.0625 -12.1875 C 14.875 -13.695312 13.472656 -14.453125 11.859375 -14.453125 C 10.503906 -14.453125 9.410156 -14.015625 8.578125 -13.140625 C 7.753906 -12.265625 7.34375 -11.09375 7.34375 -9.625 C 7.34375 -8.15625 7.753906 -6.984375 8.578125 -6.109375 C 9.410156 -5.242188 10.503906 -4.8125 11.859375 -4.8125 C 13.472656 -4.8125 14.875 -5.566406 16.0625 -7.078125 L 20.171875 -3.40625 C 19.210938 -2.164062 18 -1.210938 16.53125 -0.546875 C 15.0625 0.109375 13.394531 0.4375 11.53125 0.4375 Z M 11.53125 0.4375 "/></g></g></g><g fill="#72e3ad" fill-opacity="1"><g transform="translate(86.783479, 26.777052)"><g><path d="M 17.578125 -4.890625 L 17.578125 0 L 1.5625 0 L 1.5625 -19.265625 L 17.21875 -19.265625 L 17.21875 -14.359375 L 7.953125 -14.359375 L 7.953125 -12.109375 L 16.09375 -12.109375 L 16.09375 -7.421875 L 7.953125 -7.421875 L 7.953125 -4.890625 Z M 17.578125 -4.890625 "/></g></g></g><g fill="#72e3ad" fill-opacity="1"><g transform="translate(105.295688, 26.777052)"><g><path d="M 1.5625 -19.265625 L 8.0625 -19.265625 L 8.0625 -5.03125 L 16.75 -5.03125 L 16.75 0 L 1.5625 0 Z M 1.5625 -19.265625 "/></g></g></g><g fill="#72e3ad" fill-opacity="1"><g transform="translate(122.267502, 26.777052)"><g><path d="M 1.5625 -19.265625 L 8.0625 -19.265625 L 8.0625 -5.03125 L 16.75 -5.03125 L 16.75 0 L 1.5625 0 Z M 1.5625 -19.265625 "/></g></g></g><g fill="#72e3ad" fill-opacity="1"><g transform="translate(139.239317, 26.777052)"><g><path d="M 17.578125 -4.890625 L 17.578125 0 L 1.5625 0 L 1.5625 -19.265625 L 17.21875 -19.265625 L 17.21875 -14.359375 L 7.953125 -14.359375 L 7.953125 -12.109375 L 16.09375 -12.109375 L 16.09375 -7.421875 L 7.953125 -7.421875 L 7.953125 -4.890625 Z M 17.578125 -4.890625 "/></g></g></g></g></g></svg>